<svg version="1.1" id="Layer_1" xmlns="http://www.w3.org/2000/svg" xmlns:xlink="http://www.w3.org/1999/xlink" x="0px" y="0px"
	 width="100%" viewBox="0 0 176 128" enable-background="new 0 0 176 128" xml:space="preserve">
<path fill="#000000" opacity="1.000000" stroke="none" 
	d="
M177.000000,49.600006 
	C174.713043,49.334255 175.001404,52.424137 173.020401,52.594276 
	C171.496765,51.484058 169.831314,50.270493 168.012878,48.945469 
	C169.297684,46.894577 170.462051,45.035919 171.643890,43.149353 
	C173.592163,43.712570 174.133698,46.184566 176.640930,45.967358 
	C177.000000,47.066669 177.000000,48.133339 177.000000,49.600006 
z"/>
<path fill="#000000" opacity="1.000000" stroke="none" 
	d="
M177.000000,78.600006 
	C174.774673,77.372589 173.587891,80.184753 171.796127,80.384033 
	C170.510284,78.613701 169.318176,76.972412 168.029144,75.197678 
	C169.861511,73.671059 171.539154,72.273361 173.125809,70.951469 
	C175.369370,71.536201 173.852798,74.823181 176.701294,74.937469 
	C177.000000,76.066673 177.000000,77.133339 177.000000,78.600006 
z"/>
<path fill="#000000" opacity="1.000000" stroke="none" 
	d="
M177.000000,63.625004 
	C176.242691,65.051880 175.485352,66.103745 174.569260,67.376137 
	C172.400436,65.159828 171.312180,63.070381 167.941910,62.715935 
	C170.687668,60.419060 172.469345,58.879253 173.549789,56.991177 
	C176.302353,57.193600 174.606339,60.203022 176.746475,60.850628 
	C177.000000,61.750000 177.000000,62.500000 177.000000,63.625004 
z"/>
<path fill="#000000" opacity="1.000000" stroke="none" 
	d="
M78.332069,109.634354 
	C65.276306,96.626289 52.427021,83.909348 39.696674,71.074425 
	C34.077473,65.409065 34.168861,65.282173 39.756046,59.707134 
	C52.839783,46.651840 65.922806,33.595688 79.051094,20.585262 
	C82.573112,17.094864 86.256714,13.767511 90.131775,10.114935 
	C92.127426,10.209295 93.873222,12.748303 96.933052,10.673208 
	C96.129471,15.724358 97.767151,17.287178 102.029816,17.553106 
	C105.259315,17.754580 107.306870,21.263350 109.579834,23.453293 
	C122.523651,35.924328 135.109573,48.765953 147.970062,61.325012 
	C150.914597,64.200523 151.554596,66.069031 148.204269,69.333061 
	C132.345230,84.783661 116.750031,100.505081 101.057350,116.126526 
	C100.704094,116.478188 100.291565,116.770210 99.937256,117.120934 
	C92.978348,124.009613 92.973854,124.016113 85.685814,116.910522 
	C83.300873,114.585297 80.952171,112.222900 78.332069,109.634354 
M80.084709,67.566116 
	C82.903908,64.732903 85.740173,61.916405 88.538307,59.062538 
	C92.717087,54.800529 93.290749,54.790550 97.702301,59.177830 
	C105.026558,66.461784 112.402313,73.695534 119.627174,81.076912 
	C121.904305,83.403381 123.775574,84.003105 126.263901,81.445953 
	C130.326019,77.271461 134.624207,73.326004 138.667694,69.134315 
	C140.728683,66.997795 141.274872,64.667870 138.753647,62.173126 
	C124.666924,48.234364 110.632248,34.242764 96.628487,20.220583 
	C94.120262,17.709063 91.063789,17.969746 89.906075,20.544689 
	C87.788940,25.253490 83.925629,27.897930 80.252708,30.838520 
	C76.751457,33.641670 75.734291,38.204647 72.427948,41.100193 
	C65.507240,47.161045 57.874115,52.385548 52.075321,59.761795 
	C49.458336,63.090683 48.271412,68.819748 51.063263,71.964127 
	C53.814381,75.062614 56.821743,77.934227 59.559151,81.044052 
	C61.937904,83.746429 63.921543,83.948830 66.512413,81.158417 
	C70.702568,76.645569 75.198349,72.416473 80.084709,67.566116 
M69.526825,88.823784 
	C69.502716,89.151337 69.334862,89.568573 69.475197,89.793533 
	C75.252914,99.055054 83.834686,105.625221 91.779999,112.780106 
	C93.949493,114.733765 95.265930,111.982323 96.729271,110.918114 
	C98.422897,109.686455 98.381111,108.245926 96.892319,106.735741 
	C93.508217,103.303001 90.196167,99.799301 86.819504,96.359131 
	C85.201164,94.710365 84.590378,93.073494 86.456787,91.202095 
	C88.357872,89.295929 89.949631,90.046577 91.585274,91.646774 
	C94.674522,94.669067 97.870789,97.582283 100.947937,100.616531 
	C102.936440,102.577301 104.880234,102.957626 106.982590,100.887245 
	C109.942810,97.972046 112.899025,95.052704 115.844353,92.122475 
	C117.161720,90.811852 117.879433,89.269142 116.327789,87.774239 
	C108.479294,80.212799 100.564171,72.720505 92.463867,65.005333 
	C85.019051,72.469078 76.771744,79.685707 69.526825,88.823784 
z"/>
<path fill="#000000" opacity="1.000000" stroke="none" 
	d="
M15.750235,60.299667 
	C18.803621,64.588120 13.658569,64.558205 13.105987,67.663658 
	C11.174780,65.544342 9.807450,64.043831 8.409195,62.509380 
	C9.472750,60.216625 11.694196,59.121387 12.154040,57.072498 
	C14.686937,57.011189 14.621308,58.969872 15.750235,60.299667 
z"/>
<path fill="#000000" opacity="1.000000" stroke="none" 
	d="
M10.427042,49.309456 
	C9.469067,45.256683 13.468962,45.258495 14.730186,42.363102 
	C16.162294,44.736057 17.216097,46.482174 18.429728,48.493118 
	C16.715403,49.971661 15.056151,51.402706 13.442452,52.794460 
	C11.384356,52.606197 11.720761,50.505863 10.427042,49.309456 
z"/>
<path fill="#000000" opacity="1.000000" stroke="none" 
	d="
M171.725708,37.555439 
	C168.645508,40.652222 167.547760,36.104454 164.913651,36.817139 
	C165.426620,34.095058 166.995361,32.232876 166.074554,29.792595 
	C169.482544,29.782156 170.430817,32.731472 172.544601,32.448929 
	C173.524353,34.612991 172.111694,35.787621 171.725708,37.555439 
z"/>
<path fill="#000000" opacity="1.000000" stroke="none" 
	d="
M21.791956,34.948997 
	C21.260839,38.444141 18.114799,37.721127 16.288755,39.287853 
	C14.474178,37.456783 14.394484,35.273666 13.387012,33.009132 
	C15.883269,32.633217 17.478733,31.094578 19.317434,29.442717 
	C20.230156,31.444094 20.957651,33.039314 21.791956,34.948997 
z"/>
<path fill="#000000" opacity="1.000000" stroke="none" 
	d="
M11.152633,73.908066 
	C14.860579,66.896713 15.441356,75.847427 18.074221,74.244431 
	C17.914677,77.172638 15.586746,78.274902 15.260304,80.650276 
	C13.784258,78.233238 7.800831,79.282936 11.152633,73.908066 
z"/>
<path fill="#000000" opacity="1.000000" stroke="none" 
	d="
M20.692991,90.706383 
	C20.234333,91.932106 19.937202,92.842117 19.572184,93.960045 
	C17.181656,93.610863 16.035215,91.319992 13.487285,91.447243 
	C14.177283,88.980606 14.733334,86.992813 15.613331,83.846962 
	C17.285530,86.860939 23.040939,84.651360 20.692991,90.706383 
z"/>
<path fill="#000000" opacity="1.000000" stroke="none" 
	d="
M171.403473,85.899460 
	C171.955307,87.609375 172.384949,89.014954 172.922012,90.771942 
	C171.294769,91.871841 169.581848,93.029633 167.774765,94.251091 
	C165.466080,92.634087 166.986298,89.596687 164.625488,88.042213 
	C167.315460,87.607285 168.356323,84.242668 171.403473,85.899460 
z"/>
<path fill="#000000" opacity="1.000000" stroke="none" 
	d="
M166.672897,21.987392 
	C166.297684,23.419405 166.043961,24.518858 165.714035,25.948498 
	C163.568054,25.382261 161.621216,24.868574 159.324402,24.262539 
	C159.741272,21.949121 160.584061,19.784260 160.503601,17.240877 
	C162.454880,19.382154 166.553680,17.719955 166.672897,21.987392 
z"/>
<path fill="#000000" opacity="1.000000" stroke="none" 
	d="
M165.936096,98.896454 
	C166.035751,100.659370 166.035751,102.119675 166.035751,103.926125 
	C164.734924,104.761902 162.648972,104.761101 161.400391,106.728447 
	C159.924042,104.472855 160.942200,102.160965 158.605377,100.300087 
	C161.600769,100.100693 163.230286,97.846542 165.936096,98.896454 
z"/>
<path fill="#000000" opacity="1.000000" stroke="none" 
	d="
M20.693401,20.099617 
	C22.553875,19.680470 24.275476,19.882986 24.422165,21.716236 
	C24.579283,23.679853 23.770424,25.531273 21.243103,26.053715 
	C19.974840,24.134239 20.570030,22.148088 20.693401,20.099617 
z"/>
</svg>